# xmcd
#
# Track frame offsets:
#	150
#	20034
#	39261
#	56004
#	70201
#	91097
#	108828
#
# Disc length: 1927 seconds
#
# Revision: 1
# Processed by: cddbd v1.5.2PL0 Copyright (c) Steve Scherf et al.
# Submitted via: audiograbber 1.83.01
#
DISCID=51078507
DTITLE=Pale Blue Dot - Western Scene Disk 2
DYEAR=2006
DGENRE=Western
TTITLE0=He's Only a Desperate Man
TTITLE1=Ode to Joy
TTITLE2=Charades
TTITLE3=Lover's Rush
TTITLE4=Alcohol
TTITLE5=The World is Round
TTITLE6=Countless Rings
EXTD=
EXTT0=
EXTT1=
EXTT2=
EXTT3=
EXTT4=
EXTT5=
EXTT6=
PLAYORDER=
